<mxfile host="app.diagrams.net" agent="Mozilla/5.0 (Windows NT 10.0; Win64; x64) AppleWebKit/537.36 (KHTML, like Gecko) Chrome/132.0.0.0 Safari/537.36" version="26.0.6">
  <diagram name="1 oldal" id="0e4YjVPAWdPQ8X4Pzx-8">
    <mxGraphModel dx="1877" dy="557" grid="1" gridSize="10" guides="1" tooltips="1" connect="1" arrows="1" fold="1" page="1" pageScale="1" pageWidth="827" pageHeight="1169" math="0" shadow="0">
      <root>
        <mxCell id="0" />
        <mxCell id="1" parent="0" />
        <mxCell id="E173b0my8XbrjbUDQwS3-17" style="edgeStyle=orthogonalEdgeStyle;rounded=0;orthogonalLoop=1;jettySize=auto;html=1;fillColor=#e6d0de;gradientColor=#d5739d;strokeColor=#996185;endSize=10;strokeWidth=2;endArrow=diamondThin;endFill=0;" edge="1" parent="1" source="E173b0my8XbrjbUDQwS3-5" target="E173b0my8XbrjbUDQwS3-1">
          <mxGeometry relative="1" as="geometry">
            <Array as="points">
              <mxPoint x="45" y="150" />
            </Array>
          </mxGeometry>
        </mxCell>
        <mxCell id="E173b0my8XbrjbUDQwS3-1" value="StatisticMakerController" style="swimlane;fontStyle=1;align=center;verticalAlign=top;childLayout=stackLayout;horizontal=1;startSize=26;horizontalStack=0;resizeParent=1;resizeParentMax=0;resizeLast=0;collapsible=1;marginBottom=0;whiteSpace=wrap;html=1;fillColor=#e6d0de;gradientColor=#d5739d;strokeColor=#996185;" vertex="1" parent="1">
          <mxGeometry x="240" y="70" width="230" height="160" as="geometry" />
        </mxCell>
        <mxCell id="E173b0my8XbrjbUDQwS3-2" value="- statisticMaker: StatisticMaker&lt;div&gt;- dataReader: DataReader&lt;/div&gt;&lt;div&gt;- dataBase: DataBase&lt;/div&gt;" style="text;strokeColor=none;fillColor=none;align=left;verticalAlign=top;spacingLeft=4;spacingRight=4;overflow=hidden;rotatable=0;points=[[0,0.5],[1,0.5]];portConstraint=eastwest;whiteSpace=wrap;html=1;" vertex="1" parent="E173b0my8XbrjbUDQwS3-1">
          <mxGeometry y="26" width="230" height="54" as="geometry" />
        </mxCell>
        <mxCell id="E173b0my8XbrjbUDQwS3-3" value="" style="line;strokeWidth=1;fillColor=none;align=left;verticalAlign=middle;spacingTop=-1;spacingLeft=3;spacingRight=3;rotatable=0;labelPosition=right;points=[];portConstraint=eastwest;strokeColor=inherit;" vertex="1" parent="E173b0my8XbrjbUDQwS3-1">
          <mxGeometry y="80" width="230" height="8" as="geometry" />
        </mxCell>
        <mxCell id="E173b0my8XbrjbUDQwS3-4" value="&lt;div&gt;+ CreateStatistics(): void&lt;/div&gt;- CreateDataBase(): void&lt;div&gt;- ReadData(): void&lt;/div&gt;&lt;div&gt;- CalculateStatistics(): void&lt;br&gt;&lt;div&gt;&lt;br&gt;&lt;/div&gt;&lt;/div&gt;" style="text;strokeColor=none;fillColor=none;align=left;verticalAlign=top;spacingLeft=4;spacingRight=4;overflow=hidden;rotatable=0;points=[[0,0.5],[1,0.5]];portConstraint=eastwest;whiteSpace=wrap;html=1;" vertex="1" parent="E173b0my8XbrjbUDQwS3-1">
          <mxGeometry y="88" width="230" height="72" as="geometry" />
        </mxCell>
        <mxCell id="E173b0my8XbrjbUDQwS3-5" value="DataBase" style="swimlane;fontStyle=1;align=center;verticalAlign=top;childLayout=stackLayout;horizontal=1;startSize=26;horizontalStack=0;resizeParent=1;resizeParentMax=0;resizeLast=0;collapsible=1;marginBottom=0;whiteSpace=wrap;html=1;fillColor=#e6d0de;gradientColor=#d5739d;strokeColor=#996185;" vertex="1" parent="1">
          <mxGeometry x="-70" y="300" width="230" height="150" as="geometry" />
        </mxCell>
        <mxCell id="E173b0my8XbrjbUDQwS3-6" value="- data: List&amp;lt;float&amp;gt;" style="text;strokeColor=none;fillColor=none;align=left;verticalAlign=top;spacingLeft=4;spacingRight=4;overflow=hidden;rotatable=0;points=[[0,0.5],[1,0.5]];portConstraint=eastwest;whiteSpace=wrap;html=1;" vertex="1" parent="E173b0my8XbrjbUDQwS3-5">
          <mxGeometry y="26" width="230" height="24" as="geometry" />
        </mxCell>
        <mxCell id="E173b0my8XbrjbUDQwS3-7" value="" style="line;strokeWidth=1;fillColor=none;align=left;verticalAlign=middle;spacingTop=-1;spacingLeft=3;spacingRight=3;rotatable=0;labelPosition=right;points=[];portConstraint=eastwest;strokeColor=inherit;" vertex="1" parent="E173b0my8XbrjbUDQwS3-5">
          <mxGeometry y="50" width="230" height="8" as="geometry" />
        </mxCell>
        <mxCell id="E173b0my8XbrjbUDQwS3-8" value="&lt;div&gt;+ AddData(float): void&lt;/div&gt;&lt;div&gt;+ AddData(List&amp;lt;float&amp;gt;): void&lt;/div&gt;&lt;div&gt;+ GetData(int): float&lt;/div&gt;&lt;div&gt;+ GetALlData() List&amp;lt;float&amp;gt;&lt;/div&gt;&lt;div&gt;+ ClearData(): void&lt;/div&gt;" style="text;strokeColor=none;fillColor=none;align=left;verticalAlign=top;spacingLeft=4;spacingRight=4;overflow=hidden;rotatable=0;points=[[0,0.5],[1,0.5]];portConstraint=eastwest;whiteSpace=wrap;html=1;" vertex="1" parent="E173b0my8XbrjbUDQwS3-5">
          <mxGeometry y="58" width="230" height="92" as="geometry" />
        </mxCell>
        <mxCell id="E173b0my8XbrjbUDQwS3-9" value="DataReader" style="swimlane;fontStyle=1;align=center;verticalAlign=top;childLayout=stackLayout;horizontal=1;startSize=26;horizontalStack=0;resizeParent=1;resizeParentMax=0;resizeLast=0;collapsible=1;marginBottom=0;whiteSpace=wrap;html=1;fillColor=#e6d0de;gradientColor=#d5739d;strokeColor=#996185;" vertex="1" parent="1">
          <mxGeometry x="240" y="300" width="230" height="100" as="geometry" />
        </mxCell>
        <mxCell id="E173b0my8XbrjbUDQwS3-10" value="&amp;nbsp;" style="text;strokeColor=none;fillColor=none;align=left;verticalAlign=top;spacingLeft=4;spacingRight=4;overflow=hidden;rotatable=0;points=[[0,0.5],[1,0.5]];portConstraint=eastwest;whiteSpace=wrap;html=1;" vertex="1" parent="E173b0my8XbrjbUDQwS3-9">
          <mxGeometry y="26" width="230" height="24" as="geometry" />
        </mxCell>
        <mxCell id="E173b0my8XbrjbUDQwS3-11" value="" style="line;strokeWidth=1;fillColor=none;align=left;verticalAlign=middle;spacingTop=-1;spacingLeft=3;spacingRight=3;rotatable=0;labelPosition=right;points=[];portConstraint=eastwest;strokeColor=inherit;" vertex="1" parent="E173b0my8XbrjbUDQwS3-9">
          <mxGeometry y="50" width="230" height="8" as="geometry" />
        </mxCell>
        <mxCell id="E173b0my8XbrjbUDQwS3-12" value="&lt;div&gt;+ ReadData(string): List&amp;lt;List&amp;lt;float&amp;gt;&amp;gt;&lt;/div&gt;" style="text;strokeColor=none;fillColor=none;align=left;verticalAlign=top;spacingLeft=4;spacingRight=4;overflow=hidden;rotatable=0;points=[[0,0.5],[1,0.5]];portConstraint=eastwest;whiteSpace=wrap;html=1;" vertex="1" parent="E173b0my8XbrjbUDQwS3-9">
          <mxGeometry y="58" width="230" height="42" as="geometry" />
        </mxCell>
        <mxCell id="E173b0my8XbrjbUDQwS3-13" value="StatisticMaker&lt;div&gt;&lt;br&gt;&lt;/div&gt;" style="swimlane;fontStyle=1;align=center;verticalAlign=top;childLayout=stackLayout;horizontal=1;startSize=26;horizontalStack=0;resizeParent=1;resizeParentMax=0;resizeLast=0;collapsible=1;marginBottom=0;whiteSpace=wrap;html=1;fillColor=#e6d0de;gradientColor=#d5739d;strokeColor=#996185;" vertex="1" parent="1">
          <mxGeometry x="550" y="300" width="230" height="120" as="geometry" />
        </mxCell>
        <mxCell id="E173b0my8XbrjbUDQwS3-14" value="&amp;nbsp;" style="text;strokeColor=none;fillColor=none;align=left;verticalAlign=top;spacingLeft=4;spacingRight=4;overflow=hidden;rotatable=0;points=[[0,0.5],[1,0.5]];portConstraint=eastwest;whiteSpace=wrap;html=1;" vertex="1" parent="E173b0my8XbrjbUDQwS3-13">
          <mxGeometry y="26" width="230" height="24" as="geometry" />
        </mxCell>
        <mxCell id="E173b0my8XbrjbUDQwS3-15" value="" style="line;strokeWidth=1;fillColor=none;align=left;verticalAlign=middle;spacingTop=-1;spacingLeft=3;spacingRight=3;rotatable=0;labelPosition=right;points=[];portConstraint=eastwest;strokeColor=inherit;" vertex="1" parent="E173b0my8XbrjbUDQwS3-13">
          <mxGeometry y="50" width="230" height="8" as="geometry" />
        </mxCell>
        <mxCell id="E173b0my8XbrjbUDQwS3-16" value="&lt;div&gt;+ GetAverage(DataBase): float&lt;/div&gt;&lt;div&gt;+ GetMax(DataBase): float&lt;/div&gt;&lt;div&gt;+ GetMin(DataBase): float&lt;/div&gt;" style="text;strokeColor=none;fillColor=none;align=left;verticalAlign=top;spacingLeft=4;spacingRight=4;overflow=hidden;rotatable=0;points=[[0,0.5],[1,0.5]];portConstraint=eastwest;whiteSpace=wrap;html=1;" vertex="1" parent="E173b0my8XbrjbUDQwS3-13">
          <mxGeometry y="58" width="230" height="62" as="geometry" />
        </mxCell>
        <mxCell id="E173b0my8XbrjbUDQwS3-19" style="edgeStyle=orthogonalEdgeStyle;rounded=0;orthogonalLoop=1;jettySize=auto;html=1;fillColor=#e6d0de;gradientColor=#d5739d;strokeColor=#996185;endSize=10;strokeWidth=2;endArrow=diamondThin;endFill=0;" edge="1" parent="1" source="E173b0my8XbrjbUDQwS3-9" target="E173b0my8XbrjbUDQwS3-1">
          <mxGeometry relative="1" as="geometry">
            <mxPoint x="365" y="240" as="sourcePoint" />
            <mxPoint x="55" y="310" as="targetPoint" />
            <Array as="points" />
          </mxGeometry>
        </mxCell>
        <mxCell id="E173b0my8XbrjbUDQwS3-20" style="edgeStyle=orthogonalEdgeStyle;rounded=0;orthogonalLoop=1;jettySize=auto;html=1;fillColor=#e6d0de;gradientColor=#d5739d;strokeColor=#996185;endSize=10;strokeWidth=2;endArrow=diamondThin;endFill=0;" edge="1" parent="1" source="E173b0my8XbrjbUDQwS3-13" target="E173b0my8XbrjbUDQwS3-1">
          <mxGeometry relative="1" as="geometry">
            <mxPoint x="375" y="250" as="sourcePoint" />
            <mxPoint x="65" y="320" as="targetPoint" />
            <Array as="points">
              <mxPoint x="665" y="150" />
            </Array>
          </mxGeometry>
        </mxCell>
        <mxCell id="E173b0my8XbrjbUDQwS3-21" style="edgeStyle=orthogonalEdgeStyle;rounded=0;orthogonalLoop=1;jettySize=auto;html=1;fillColor=#e6d0de;gradientColor=#d5739d;strokeColor=#996185;endSize=10;strokeWidth=2;endArrow=open;endFill=0;dashed=1;" edge="1" parent="1" source="E173b0my8XbrjbUDQwS3-5" target="E173b0my8XbrjbUDQwS3-13">
          <mxGeometry relative="1" as="geometry">
            <mxPoint x="370" y="240" as="sourcePoint" />
            <mxPoint x="55" y="310" as="targetPoint" />
            <Array as="points">
              <mxPoint x="45" y="490" />
              <mxPoint x="665" y="490" />
            </Array>
          </mxGeometry>
        </mxCell>
      </root>
    </mxGraphModel>
  </diagram>
</mxfile>
